<svg width="30" height="30" viewBox="0 0 30 30" fill="none" xmlns="http://www.w3.org/2000/svg">
<circle cx="15" cy="15" r="15" fill="#0D0D0D"/>
<path d="M11.375 9.625V21H8.63281V9.625H11.375ZM14.7969 9.625V11.7422H5.28906V9.625H14.7969ZM26.1672 15.0859V15.5469C26.1672 16.4167 26.0448 17.1979 25.8 17.8906C25.5604 18.5781 25.2193 19.1667 24.7766 19.6562C24.3339 20.1406 23.8104 20.513 23.2063 20.7734C22.6021 21.0286 21.9354 21.1562 21.2063 21.1562C20.4719 21.1562 19.8 21.0286 19.1906 20.7734C18.5865 20.513 18.0604 20.1406 17.6125 19.6562C17.1698 19.1667 16.826 18.5781 16.5813 17.8906C16.3417 17.1979 16.2219 16.4167 16.2219 15.5469V15.0859C16.2219 14.2161 16.3417 13.4349 16.5813 12.7422C16.826 12.0495 17.1672 11.4609 17.6047 10.9766C18.0474 10.487 18.5708 10.1146 19.175 9.85938C19.7844 9.59896 20.4563 9.46875 21.1906 9.46875C21.9198 9.46875 22.5865 9.59896 23.1906 9.85938C23.8 10.1146 24.326 10.487 24.7688 10.9766C25.2115 11.4609 25.5552 12.0495 25.8 12.7422C26.0448 13.4349 26.1672 14.2161 26.1672 15.0859ZM23.3859 15.5469V15.0703C23.3859 14.5078 23.3365 14.013 23.2375 13.5859C23.1438 13.1536 23.0031 12.7917 22.8156 12.5C22.6281 12.2083 22.3964 11.9896 22.1203 11.8438C21.8495 11.6927 21.5396 11.6172 21.1906 11.6172C20.826 11.6172 20.5083 11.6927 20.2375 11.8438C19.9667 11.9896 19.7401 12.2083 19.5578 12.5C19.3755 12.7917 19.2375 13.1536 19.1438 13.5859C19.0552 14.013 19.0109 14.5078 19.0109 15.0703V15.5469C19.0109 16.1042 19.0552 16.599 19.1438 17.0312C19.2375 17.4583 19.3755 17.8203 19.5578 18.1172C19.7453 18.4141 19.9745 18.638 20.2453 18.7891C20.5214 18.9401 20.8417 19.0156 21.2063 19.0156C21.5552 19.0156 21.8651 18.9401 22.1359 18.7891C22.4068 18.638 22.6333 18.4141 22.8156 18.1172C23.0031 17.8203 23.1438 17.4583 23.2375 17.0312C23.3365 16.599 23.3859 16.1042 23.3859 15.5469Z" fill="#F9ECE3"/>
</svg>
