<svg width="59" height="30" viewBox="0 0 59 30" fill="none" xmlns="http://www.w3.org/2000/svg">
<circle cx="15" cy="15" r="15" fill="white"/>
<path d="M11.375 9.625V21H8.63281V9.625H11.375ZM14.7969 9.625V11.7422H5.28906V9.625H14.7969ZM26.1672 15.0859V15.5469C26.1672 16.4167 26.0448 17.1979 25.8 17.8906C25.5604 18.5781 25.2193 19.1667 24.7766 19.6562C24.3339 20.1406 23.8104 20.513 23.2063 20.7734C22.6021 21.0286 21.9354 21.1562 21.2063 21.1562C20.4719 21.1562 19.8 21.0286 19.1906 20.7734C18.5865 20.513 18.0604 20.1406 17.6125 19.6562C17.1698 19.1667 16.826 18.5781 16.5813 17.8906C16.3417 17.1979 16.2219 16.4167 16.2219 15.5469V15.0859C16.2219 14.2161 16.3417 13.4349 16.5813 12.7422C16.826 12.0495 17.1672 11.4609 17.6047 10.9766C18.0474 10.487 18.5708 10.1146 19.175 9.85938C19.7844 9.59896 20.4563 9.46875 21.1906 9.46875C21.9198 9.46875 22.5865 9.59896 23.1906 9.85938C23.8 10.1146 24.326 10.487 24.7688 10.9766C25.2115 11.4609 25.5552 12.0495 25.8 12.7422C26.0448 13.4349 26.1672 14.2161 26.1672 15.0859ZM23.3859 15.5469V15.0703C23.3859 14.5078 23.3365 14.013 23.2375 13.5859C23.1438 13.1536 23.0031 12.7917 22.8156 12.5C22.6281 12.2083 22.3964 11.9896 22.1203 11.8438C21.8495 11.6927 21.5396 11.6172 21.1906 11.6172C20.826 11.6172 20.5083 11.6927 20.2375 11.8438C19.9667 11.9896 19.7401 12.2083 19.5578 12.5C19.3755 12.7917 19.2375 13.1536 19.1438 13.5859C19.0552 14.013 19.0109 14.5078 19.0109 15.0703V15.5469C19.0109 16.1042 19.0552 16.599 19.1438 17.0312C19.2375 17.4583 19.3755 17.8203 19.5578 18.1172C19.7453 18.4141 19.9745 18.638 20.2453 18.7891C20.5214 18.9401 20.8417 19.0156 21.2063 19.0156C21.5552 19.0156 21.8651 18.9401 22.1359 18.7891C22.4068 18.638 22.6333 18.4141 22.8156 18.1172C23.0031 17.8203 23.1438 17.4583 23.2375 17.0312C23.3365 16.599 23.3859 16.1042 23.3859 15.5469Z" fill="#0D0D0D"/>
<path d="M34.5328 9.625H36.7672L39.3062 17.5391L41.8453 9.625H44.0797L40.2125 21H38.4L34.5328 9.625ZM33.1734 9.625H35.4859L35.9156 18.3438V21H33.1734V9.625ZM43.1266 9.625H45.4469V21H42.6969V18.3438L43.1266 9.625ZM57.6297 15.0859V15.5469C57.6297 16.4167 57.5073 17.1979 57.2625 17.8906C57.0229 18.5781 56.6818 19.1667 56.2391 19.6562C55.7964 20.1406 55.2729 20.513 54.6688 20.7734C54.0646 21.0286 53.3979 21.1562 52.6688 21.1562C51.9344 21.1562 51.2625 21.0286 50.6531 20.7734C50.049 20.513 49.5229 20.1406 49.075 19.6562C48.6323 19.1667 48.2885 18.5781 48.0438 17.8906C47.8042 17.1979 47.6844 16.4167 47.6844 15.5469V15.0859C47.6844 14.2161 47.8042 13.4349 48.0438 12.7422C48.2885 12.0495 48.6297 11.4609 49.0672 10.9766C49.5099 10.487 50.0333 10.1146 50.6375 9.85938C51.2469 9.59896 51.9188 9.46875 52.6531 9.46875C53.3823 9.46875 54.049 9.59896 54.6531 9.85938C55.2625 10.1146 55.7885 10.487 56.2313 10.9766C56.674 11.4609 57.0177 12.0495 57.2625 12.7422C57.5073 13.4349 57.6297 14.2161 57.6297 15.0859ZM54.8484 15.5469V15.0703C54.8484 14.5078 54.799 14.013 54.7 13.5859C54.6063 13.1536 54.4656 12.7917 54.2781 12.5C54.0906 12.2083 53.8589 11.9896 53.5828 11.8438C53.312 11.6927 53.0021 11.6172 52.6531 11.6172C52.2885 11.6172 51.9708 11.6927 51.7 11.8438C51.4292 11.9896 51.2026 12.2083 51.0203 12.5C50.838 12.7917 50.7 13.1536 50.6063 13.5859C50.5177 14.013 50.4734 14.5078 50.4734 15.0703V15.5469C50.4734 16.1042 50.5177 16.599 50.6063 17.0312C50.7 17.4583 50.838 17.8203 51.0203 18.1172C51.2078 18.4141 51.437 18.638 51.7078 18.7891C51.9839 18.9401 52.3042 19.0156 52.6688 19.0156C53.0177 19.0156 53.3276 18.9401 53.5984 18.7891C53.8693 18.638 54.0958 18.4141 54.2781 18.1172C54.4656 17.8203 54.6063 17.4583 54.7 17.0312C54.799 16.599 54.8484 16.1042 54.8484 15.5469Z" fill="white"/>
</svg>
