<svg width="255" height="200" viewBox="0 0 255 200" fill="none" xmlns="http://www.w3.org/2000/svg">
<circle cx="178" cy="60" r="50" fill="#AFCFDC"/>
<mask id="path-2-inside-1_10_210" fill="white">
<path fill-rule="evenodd" clip-rule="evenodd" d="M99.6208 199.97C98.8172 199.99 98.0112 200 97.2029 200C43.5192 200 0 155.228 0 100C0 44.7715 43.5192 0 97.2029 0C135.984 0 169.461 23.3649 185.059 57.1581C223.821 57.95 255 89.6196 255 128.572C255 168.02 223.02 200 183.571 200H101.726C101.022 200 100.32 199.99 99.6208 199.97Z"/>
</mask>
<path d="M99.6208 199.97L100.344 174.98L99.6684 174.961L98.9929 174.978L99.6208 199.97ZM185.059 57.1581L162.36 67.635L168.913 81.8335L184.548 82.1529L185.059 57.1581ZM98.9929 174.978C98.3987 174.992 97.802 175 97.2029 175V225C98.2204 225 99.2357 224.987 100.249 224.962L98.9929 174.978ZM97.2029 175C57.9902 175 25 142.095 25 100H-25C-25 168.362 29.0483 225 97.2029 225V175ZM25 100C25 57.9053 57.9902 25 97.2029 25V-25C29.0483 -25 -25 31.6377 -25 100H25ZM97.2029 25C125.58 25 150.568 42.0864 162.36 67.635L207.758 46.6813C188.355 4.64343 146.389 -25 97.2029 -25V25ZM184.548 82.1529C209.733 82.6674 230 103.256 230 128.572H280C280 75.9835 237.909 33.2325 185.569 32.1633L184.548 82.1529ZM230 128.572C230 154.213 209.213 175 183.571 175V225C236.827 225 280 181.828 280 128.572H230ZM183.571 175H101.726V225H183.571V175ZM101.726 175C101.263 175 100.802 174.993 100.344 174.98L98.8976 224.959C99.8376 224.986 100.78 225 101.726 225V175Z" fill="black" mask="url(#path-2-inside-1_10_210)"/>
</svg>
