<svg width="205" height="215" viewBox="0 0 205 215" fill="none" xmlns="http://www.w3.org/2000/svg">
<circle cx="143" cy="53" r="40" fill="#AFCFDC"/>
<mask id="path-2-inside-1_10_211" fill="white">
<path fill-rule="evenodd" clip-rule="evenodd" d="M79.9413 159.979C79.3437 159.993 78.7444 160 78.1435 160C34.986 160 0 124.183 0 80C0 35.8172 34.986 0 78.1435 0C109.319 0 136.23 18.6896 148.77 45.7215C179.908 46.2094 205 71.6031 205 102.857C205 134.416 179.416 160 147.857 160H81.4993C80.9783 160 80.4589 159.993 79.9413 159.979Z"/>
</mask>
<path d="M79.9413 159.979L80.6102 134.988L79.987 134.972L79.3638 134.986L79.9413 159.979ZM148.77 45.7215L126.092 56.2422L132.693 70.4727L148.379 70.7184L148.77 45.7215ZM79.3638 134.986C78.9585 134.995 78.5518 135 78.1435 135V185C78.937 185 79.7288 184.991 80.5188 184.973L79.3638 134.986ZM78.1435 135C49.3433 135 25 110.932 25 80H-25C-25 137.433 20.6288 185 78.1435 185V135ZM25 80C25 49.0677 49.3433 25 78.1435 25V-25C20.6288 -25 -25 22.5667 -25 80H25ZM78.1435 25C98.9832 25 117.388 37.4806 126.092 56.2422L171.449 35.2008C155.072 -0.101355 119.655 -25 78.1435 -25V25ZM148.379 70.7184C165.885 70.9928 180 85.279 180 102.857H230C230 57.9272 193.931 21.4261 149.162 20.7246L148.379 70.7184ZM180 102.857C180 120.609 165.609 135 147.857 135V185C193.223 185 230 148.223 230 102.857H180ZM147.857 135H81.4993V185H147.857V135ZM81.4993 135C81.2014 135 80.905 134.996 80.6102 134.988L79.2724 184.97C80.0129 184.99 80.7552 185 81.4993 185V135Z" fill="black" mask="url(#path-2-inside-1_10_211)"/>
<circle cx="159.5" cy="185.5" r="7.5" fill="#0D0D0D"/>
<circle cx="124.5" cy="185.5" r="7.5" fill="#0D0D0D"/>
<circle cx="89.5" cy="185.5" r="7.5" fill="#0D0D0D"/>
<circle cx="54.5" cy="185.5" r="7.5" fill="#0D0D0D"/>
<circle cx="142.5" cy="207.5" r="7.5" fill="#0D0D0D"/>
<circle cx="107.5" cy="207.5" r="7.5" fill="#0D0D0D"/>
<circle cx="72.5" cy="207.5" r="7.5" fill="#0D0D0D"/>
</svg>
