<svg width="65" height="70" viewBox="0 0 65 70" fill="none" xmlns="http://www.w3.org/2000/svg">
<ellipse cx="45.3415" cy="17.2558" rx="12.6829" ry="13.0233" fill="#AFCFDC"/>
<mask id="path-2-inside-1_10_273" fill="white">
<path fill-rule="evenodd" clip-rule="evenodd" d="M25.5979 52.079C25.3254 52.0883 25.0518 52.093 24.7772 52.093C11.0931 52.093 0 40.4316 0 26.0465C0 11.6614 11.0931 0 24.7772 0C34.6672 0 43.2039 6.09137 47.1774 14.8999C57.0897 15.3097 65 23.4753 65 33.4884C65 43.7635 56.6704 52.093 46.3953 52.093H26.3274C26.0831 52.093 25.8399 52.0883 25.5979 52.079Z"/>
</mask>
<path d="M25.5979 52.079L25.9062 44.0849L25.6153 44.0737L25.3244 44.0837L25.5979 52.079ZM47.1774 14.8999L39.885 18.1894L41.9148 22.6891L46.8469 22.8931L47.1774 14.8999ZM25.3244 44.0837C25.143 44.0899 24.9606 44.093 24.7772 44.093V60.093C25.143 60.093 25.5078 60.0868 25.8713 60.0743L25.3244 44.0837ZM24.7772 44.093C15.8833 44.093 8 36.3946 8 26.0465H-8C-8 44.4686 6.30295 60.093 24.7772 60.093V44.093ZM8 26.0465C8 15.6984 15.8833 8 24.7772 8V-8C6.30295 -8 -8 7.62446 -8 26.0465H8ZM24.7772 8C31.2393 8 37.0846 11.9814 39.885 18.1894L54.4697 11.6103C49.3232 0.201319 38.0952 -8 24.7772 -8V8ZM46.8469 22.8931C52.491 23.1264 57 27.7829 57 33.4884H73C73 19.1677 61.6884 7.49306 47.5079 6.90671L46.8469 22.8931ZM57 33.4884C57 39.3452 52.2521 44.093 46.3953 44.093V60.093C61.0887 60.093 73 48.1817 73 33.4884H57ZM46.3953 44.093H26.3274V60.093H46.3953V44.093ZM26.3274 44.093C26.1859 44.093 26.0455 44.0903 25.9062 44.0849L25.2896 60.0731C25.6343 60.0864 25.9803 60.093 26.3274 60.093V44.093Z" fill="black" mask="url(#path-2-inside-1_10_273)"/>
<ellipse cx="50.5732" cy="60.3954" rx="2.37805" ry="2.44186" fill="#0D0D0D"/>
<ellipse cx="39.4757" cy="60.3954" rx="2.37805" ry="2.44186" fill="#0D0D0D"/>
<ellipse cx="28.378" cy="60.3954" rx="2.37805" ry="2.44186" fill="#0D0D0D"/>
<ellipse cx="17.2805" cy="60.3954" rx="2.37805" ry="2.44186" fill="#0D0D0D"/>
<ellipse cx="45.183" cy="67.5581" rx="2.37805" ry="2.44186" fill="#0D0D0D"/>
<ellipse cx="34.0853" cy="67.5581" rx="2.37805" ry="2.44186" fill="#0D0D0D"/>
<ellipse cx="22.9878" cy="67.5581" rx="2.37805" ry="2.44186" fill="#0D0D0D"/>
</svg>
