<svg width="90" height="70" viewBox="0 0 90 70" fill="none" xmlns="http://www.w3.org/2000/svg">
<ellipse cx="62.8236" cy="21" rx="17.6471" ry="17.5" fill="#AFCFDC"/>
<mask id="path-2-inside-1_10_272" fill="white">
<path fill-rule="evenodd" clip-rule="evenodd" d="M35.0507 69.9919C34.8034 69.9973 34.5555 70 34.3069 70C15.3597 70 0 54.3299 0 35C0 15.67 15.3597 0 34.3069 0C47.9932 0 59.8076 8.17616 65.3133 20.0019C78.976 20.1697 90 31.2975 90 45C90 58.8071 78.8071 70 65 70H35.6931C35.4783 70 35.2642 69.9973 35.0507 69.9919Z"/>
</mask>
<path d="M35.0507 69.9919L35.3029 59.9951L35.0684 59.9892L34.8339 59.9943L35.0507 69.9919ZM65.3133 20.0019L56.2476 24.2226L58.902 29.924L65.1905 30.0012L65.3133 20.0019ZM34.8339 59.9943C34.6587 59.9981 34.483 60 34.3069 60V80C34.6279 80 34.9481 79.9965 35.2676 79.9896L34.8339 59.9943ZM34.3069 60C21.0702 60 10 48.9966 10 35H-10C-10 59.6633 9.64928 80 34.3069 80V60ZM10 35C10 21.0034 21.0702 10 34.3069 10V-10C9.64928 -10 -10 10.3367 -10 35H10ZM34.3069 10C43.8784 10 52.2855 15.7122 56.2476 24.2226L74.3789 15.7813C67.3297 0.640154 52.108 -10 34.3069 -10V10ZM65.1905 30.0012C73.3855 30.1018 80 36.7792 80 45H100C100 25.8158 84.5666 10.2376 65.4361 10.0027L65.1905 30.0012ZM80 45C80 53.2843 73.2843 60 65 60V80C84.33 80 100 64.33 100 45H80ZM65 60H35.6931V80H65V60ZM35.6931 60C35.5624 60 35.4324 59.9984 35.3029 59.9951L34.7985 79.9887C35.096 79.9962 35.3942 80 35.6931 80V60Z" fill="black" mask="url(#path-2-inside-1_10_272)"/>
</svg>
